<svg width="20" height="20" viewBox="0 0 20 20" fill="none" xmlns="http://www.w3.org/2000/svg">
<rect width="20" height="20" rx="3" fill="none"/>
<rect x="7.24264" y="5.82843" width="2" height="3" rx="1" transform="rotate(135 7.24264 5.82843)" fill="#8594a8"/>
<rect x="5" y="9" width="2" height="3" rx="1" transform="rotate(90 5 9)" fill="#8594a8"/>
<rect x="5.82843" y="13" width="2" height="3" rx="1" transform="rotate(45 5.82843 13)" fill="#8594a8"/>
<rect x="9" y="15" width="2" height="3" rx="1" fill="#8594a8"/>
<rect x="16.5529" y="15.1387" width="2" height="3" rx="1" transform="rotate(135 16.5529 15.1387)" fill="#8594a8"/>
<rect x="18" y="9" width="2" height="3" rx="1" transform="rotate(90 18 9)" fill="#8594a8"/>
<rect x="15.1195" y="3.70897" width="2" height="2.99736" rx="1" transform="rotate(45 15.1195 3.70897)" fill="#8594a8"/>
<rect x="9" y="2" width="2" height="3" rx="1" fill="#8594a8"/>
<path fill-rule="evenodd" clip-rule="evenodd" d="M10 14C12.2091 14 14 12.2091 14 10C14 7.79086 12.2091 6 10 6C7.79086 6 6 7.79086 6 10C6 12.2091 7.79086 14 10 14ZM8 10C8 9 9 8 10 8C11 8 12 9 12 10C12 11 11 12 10 12C9 12 8 11 8 10Z" fill="#8594a8"/>
</svg>
